# xmcd
#
# Track frame offsets:
#	150
#	50798
#	99873
#	159377
#	183016
#	235085
#
# Disc length: 3569 seconds
#
# Revision: 1
# Processed by: cddbd v1.5.2PL0 Copyright (c) Steve Scherf et al.
# Submitted via: audiograbber 1.83.01
#
DISCID=3d0def06
DTITLE=Grateful Dead - 69-02-04 The Music Box, Omaha NE
DYEAR=1900
DGENRE=
TTITLE0=Good Morning Little Schoolgirl
TTITLE1=Morning Dew
TTITLE2=Dark Star
TTITLE3=St Stephen
TTITLE4=The Eleven
TTITLE5=Death Don't Have No Mercy
EXTD=
EXTT0=
EXTT1=
EXTT2=
EXTT3=
EXTT4=
EXTT5=
PLAYORDER=
